<?xml version="1.0" encoding="UTF-8"?>
<svg width="40px" height="40px" viewBox="0 0 40 40" version="1.1" xmlns="http://www.w3.org/2000/svg" xmlns:xlink="http://www.w3.org/1999/xlink">
    <!-- Generator: sketchtool 52.5 (67469) - http://www.bohemiancoding.com/sketch -->
    <title>5AA1FAAA-F929-4C26-BB03-841A9C100FA1</title>
    <desc>Created with sketchtool.</desc>
    <g id="Symbols" stroke="none" stroke-width="1" fill="none" fill-rule="evenodd">
        <g id="comp/footers/desk" transform="translate(-745.000000, -20.000000)">
            <g id="Group-20" transform="translate(745.000000, 20.000000)">
                <g id="Facebook-Copy">
                    <path d="M0,19.6843383 C0,8.81297792 8.81297792,0 19.6843383,0 C30.5556987,0 39.3686766,8.81297792 39.3686766,19.6843383 C39.3686766,30.5556987 30.5556987,39.3686766 19.6843383,39.3686766 C8.81297792,39.3686766 0,30.5556987 0,19.6843383 Z" id="back" fill="#3B5998"></path>
                    <path d="M21.0799211,30.6021555 L21.0799211,19.8928362 L24.0361616,19.8928362 L24.4279273,16.2023454 L21.0799211,16.2023454 L21.0849437,14.3552193 C21.0849437,13.3926825 21.1763976,12.8769332 22.5588784,12.8769332 L24.4069996,12.8769332 L24.4069996,9.18602455 L21.4503406,9.18602455 C17.8989176,9.18602455 16.6489088,10.9763096 16.6489088,13.9870061 L16.6489088,16.2027634 L14.4351814,16.2027634 L14.4351814,19.8932541 L16.6489088,19.8932541 L16.6489088,30.6021555 L21.0799211,30.6021555 Z" id="Shape" fill="#FFFFFF"></path>
                </g>
            </g>
        </g>
    </g>
</svg>