<?xml version="1.0" encoding="UTF-8"?>
<svg width="40px" height="40px" viewBox="0 0 40 40" version="1.1" xmlns="http://www.w3.org/2000/svg" xmlns:xlink="http://www.w3.org/1999/xlink">
    <!-- Generator: sketchtool 52.5 (67469) - http://www.bohemiancoding.com/sketch -->
    <title>6A79C495-6B13-4740-BF2B-EF75D334A024</title>
    <desc>Created with sketchtool.</desc>
    <g id="Symbols" stroke="none" stroke-width="1" fill="none" fill-rule="evenodd">
        <g id="comp/footers/desk" transform="translate(-1070.000000, -20.000000)">
            <g id="Group-20" transform="translate(745.000000, 20.000000)">
                <g id="LinkedIN-Copy" transform="translate(325.000000, 0.000000)">
                    <path d="M0,19.6843383 C0,8.81297792 8.81297792,0 19.6843383,0 C30.5556987,0 39.3686766,8.81297792 39.3686766,19.6843383 C39.3686766,30.5556987 30.5556987,39.3686766 19.6843383,39.3686766 C8.81297792,39.3686766 0,30.5556987 0,19.6843383 Z" id="back" fill="#0077B5"></path>
                    <path d="M13.9107103,16.3034288 L13.9107103,29.7065862 L9.44980874,29.7065862 L9.44980874,16.3034288 L13.9107103,16.3034288 Z M14.2045165,12.1572915 C14.2045165,13.4442416 13.2357933,14.4740151 11.6803486,14.4740151 L11.651841,14.4740151 C10.1542132,14.4740151 9.18602455,13.4442416 9.18602455,12.1572915 C9.18602455,10.8431204 10.1837007,9.84216916 11.709747,9.84216916 C13.2357933,9.84216916 14.1755635,10.8431204 14.2045165,12.1572915 Z M29.9984277,22.0216254 L29.9982495,29.7065862 L25.5375262,29.7065862 L25.5375262,22.5358894 C25.5375262,20.7347643 24.8920077,19.5057256 23.2771424,19.5057256 C22.0447242,19.5057256 21.310654,20.334277 20.9882511,21.1345399 C20.870301,21.4213393 20.841348,21.8209369 20.841348,22.2215131 L20.841348,29.706942 L16.379912,29.706942 C16.379912,29.706942 16.4387089,17.5614676 16.379912,16.3037846 L20.841348,16.3037846 L20.841348,18.2022294 C21.4334148,17.2896131 22.4938076,15.9886967 24.8622529,15.9886967 C27.7977317,15.9886967 29.9984277,17.9047551 29.9984277,22.0216254 Z" id="Shape" fill="#FFFFFF"></path>
                </g>
            </g>
        </g>
    </g>
</svg>