<?xml version="1.0" encoding="UTF-8"?>
<svg width="39px" height="40px" viewBox="0 0 39 40" version="1.1" xmlns="http://www.w3.org/2000/svg" xmlns:xlink="http://www.w3.org/1999/xlink">
    <!-- Generator: sketchtool 52.5 (67469) - http://www.bohemiancoding.com/sketch -->
    <title>DD0DA572-79D3-4E0C-9A23-FBFF3482BAA1</title>
    <desc>Created with sketchtool.</desc>
    <g id="Symbols" stroke="none" stroke-width="1" fill="none" fill-rule="evenodd">
        <g id="comp/footers/desk" transform="translate(-989.000000, -20.000000)">
            <g id="Group-20" transform="translate(745.000000, 20.000000)">
                <g id="Youtube-Copy" transform="translate(244.000000, 0.000000)">
                    <path d="M0,19.6843383 C0,8.81297792 8.64408906,0 19.3071145,0 C29.9701399,0 38.6142289,8.81297792 38.6142289,19.6843383 C38.6142289,30.5556987 29.9701399,39.3686766 19.3071145,39.3686766 C8.64408906,39.3686766 0,30.5556987 0,19.6843383 Z" id="back" fill="#CE1312"></path>
                    <path d="M29.3558778,15.7221076 C29.3558778,15.7221076 29.154731,14.2436176 28.5384375,13.5925456 C27.7563424,12.7376365 26.879779,12.7336134 26.4781278,12.6839951 C23.6003778,12.4667476 19.2837528,12.4667476 19.2837528,12.4667476 L19.2747558,12.4667476 C19.2747558,12.4667476 14.9581308,12.4667476 12.0803807,12.6839951 C11.678087,12.7336134 10.8021662,12.7376365 10.0194284,13.5925456 C9.40313495,14.2436176 9.20263071,15.7221076 9.20263071,15.7221076 C9.20263071,15.7221076 8.99698533,17.4587466 8.99698533,19.1947152 L8.99698533,20.8227304 C8.99698533,22.5593694 9.20263071,24.2953379 9.20263071,24.2953379 C9.20263071,24.2953379 9.40313495,25.7738279 10.0194284,26.4248999 C10.8021662,27.2798091 11.8297504,27.2529884 12.2873114,27.3421672 C13.9324744,27.5071144 19.2792543,27.5580737 19.2792543,27.5580737 C19.2792543,27.5580737 23.6003778,27.5513685 26.4781278,27.334121 C26.879779,27.2838322 27.7563424,27.2798091 28.5384375,26.4248999 C29.154731,25.7738279 29.3558778,24.2953379 29.3558778,24.2953379 C29.3558778,24.2953379 29.5615232,22.5593694 29.5615232,20.8227304 L29.5615232,19.1947152 C29.5615232,17.4587466 29.3558778,15.7221076 29.3558778,15.7221076 L29.3558778,15.7221076 Z" id="Youtube" fill="#FFFFFF"></path>
                    <polygon id="Path" fill="#CE1312" points="17.1559657 22.7953914 17.1553231 16.7667731 22.7116042 19.7914753"></polygon>
                </g>
            </g>
        </g>
    </g>
</svg>